# xmcd
#
# Track frame offsets: 
#        150
#        35483
#        120367
#        147846
#        152094
#        173032
#        233371
#        249140
#
# Disc length: 3835 seconds
#
# Revision: 0
# Processed by: cddbd v1.4PL0 Copyright (c) Steve Scherf et al.
# Submitted via: ExactAudioCopy v0.95a3
#
DISCID=530ef908
DTITLE=Jimi Hendrix and B.B. King - The King's Jam - Generation Club, 
DTITLE=New York
DYEAR=1968
DGENRE=Blues
TTITLE0=Like A Rolling Stone
TTITLE1=Blues Jam N°1 Part I
TTITLE2=Blues Jam N°1 Part II
TTITLE3=Band Introduction by BB.King
TTITLE4=Blues Jam N°2 Part I
TTITLE5=Blues Jam N°2 Part II
TTITLE6=Blues Jam N°3
TTITLE7=It's My Own Fault
EXTD=w/ the Paul Butterfield Blues Band, feat. Al Kooper and Elvin Bis
EXTD=hop
EXTT0=
EXTT1=
EXTT2=
EXTT3=
EXTT4=
EXTT5=
EXTT6=
EXTT7=
PLAYORDER=
